<svg xmlns="http://www.w3.org/2000/svg" xmlns:xlink="http://www.w3.org/1999/xlink" preserveAspectRatio="xMidYMid" width="918" height="907.188" viewBox="0 0 918 907.188">
  <defs>
    <style>
      .cls-1 {
        stroke: #ed6759;
        stroke-width: 5px;
        fill: none;
        fill-rule: evenodd;
      }
    </style>
  </defs>
  <path d="M56.219,577.563 C56.219,577.563 -85.965,389.011 92.219,165.563 C237.813,-17.017 403.219,45.563 403.219,45.563 C403.219,45.563 305.988,94.473 304.219,157.563 C302.449,220.652 343.395,219.637 383.219,246.562 C383.219,246.562 450.275,132.971 452.219,117.563 C452.219,117.563 437.039,46.912 457.219,12.563 C457.219,12.563 465.953,0.834 471.219,8.563 C471.219,8.563 477.266,-2.814 486.219,5.562 C486.219,5.562 507.365,1.941 508.219,25.563 C508.219,25.563 506.609,34.701 494.219,29.563 C481.828,24.424 485.219,39.563 485.219,39.563 C485.219,39.563 483.473,64.740 500.219,46.563 C516.965,28.385 510.219,52.562 510.219,52.562 L495.219,69.563 C495.219,69.563 476.883,88.955 485.219,110.563 C493.555,132.170 477.219,138.563 477.219,138.563 C477.219,138.563 461.787,153.996 456.219,183.563 C450.650,213.129 437.414,247.236 433.219,253.563 C433.219,253.563 480.432,250.773 492.219,258.563 C492.219,258.563 528.002,214.939 537.219,207.563 C546.436,200.186 562.510,165.297 562.219,142.563 C561.928,119.828 567.502,74.943 591.219,64.563 C608.094,57.176 618.219,69.563 618.219,69.563 C618.219,69.563 635.969,65.844 633.219,78.563 C630.469,91.281 629.832,105.359 621.219,90.563 C612.606,75.766 602.219,104.563 602.219,104.563 C602.219,104.563 591.309,132.848 600.219,158.562 C609.129,184.277 585.219,185.563 585.219,185.563 C585.219,185.563 577.527,188.219 568.219,210.563 C558.910,232.906 525.219,296.563 525.219,296.563 C525.219,296.563 552.164,275.822 588.219,292.562 C588.219,292.562 607.561,297.158 614.219,308.563 C620.877,319.967 637.219,329.562 637.219,329.562 C637.219,329.562 658.693,341.695 638.219,347.563 C617.744,353.430 608.516,361.773 615.219,375.563 C621.922,389.352 619.680,422.791 590.219,419.563 C590.219,419.563 611.943,443.332 657.219,430.563 C702.494,417.793 771.219,397.563 771.219,397.563 C771.219,397.563 803.250,384.600 844.219,394.562 L892.219,412.563 C892.219,412.563 902.295,418.707 906.219,425.563 C910.143,432.418 919.861,446.322 913.219,449.563 C906.576,452.803 897.219,435.563 897.219,435.563 C897.219,435.563 894.688,429.541 873.219,426.562 C851.750,423.584 832.617,418.404 834.219,436.562 C835.820,454.721 834.721,460.488 825.219,459.562 C815.717,458.637 821.219,436.562 821.219,436.562 C821.219,436.562 820.242,413.504 805.219,414.563 C790.195,415.621 746.219,438.563 746.219,438.563 C746.219,438.563 670.473,473.547 650.219,479.563 C629.965,485.578 631.141,484.762 610.219,474.563 C589.297,464.363 489.219,417.562 489.219,417.562 C489.219,417.562 471.400,412.963 470.219,435.563 C469.037,458.162 456.307,504.240 490.219,530.563 C524.131,556.885 614.244,625.816 615.219,656.563 C615.219,656.563 617.617,664.881 627.219,664.563 C636.820,664.244 646.219,677.562 646.219,677.562 C646.219,677.562 651.688,687.451 641.219,685.563 C630.750,683.674 634.010,691.891 634.219,697.563 C634.428,703.234 629.721,733.047 623.219,740.563 C616.717,748.078 613.274,767.811 596.219,757.563 C579.164,747.314 584.684,735.555 595.219,738.563 C605.754,741.570 618.773,727.822 611.219,706.563 C603.664,685.303 584.055,666.295 582.219,653.562 C580.383,640.830 565.240,633.010 554.219,626.562 C543.197,620.115 427.615,566.975 428.219,531.563 C428.219,531.563 418.645,521.270 407.219,538.562 C395.793,555.855 375.690,568.859 349.219,560.563 C322.748,552.266 267.215,507.623 233.219,529.563 C199.223,551.502 159.444,615.757 220.219,677.562 C292.773,751.347 309.957,812.694 266.219,866.562 C206.501,940.112 113.955,895.295 120.219,832.563 C126.483,769.830 206.816,781.878 211.219,820.562 C214.527,849.630 198.697,872.792 177.219,864.563 C156.765,856.726 168.219,841.563 168.219,841.563 C168.219,841.563 168.740,853.717 178.219,853.562 C187.698,853.408 194.042,851.322 193.219,834.562 C192.337,816.622 178.921,811.322 166.219,812.563 C153.047,813.849 143.177,820.833 142.219,836.563 C141.017,856.281 156.024,873.184 178.219,876.562 C200.414,879.941 269.856,872.712 256.219,785.563 C256.219,785.563 253.663,762.095 234.219,742.563 C214.775,723.030 130.841,674.535 148.219,586.563 C165.596,498.590 227.771,490.491 256.219,486.563 C256.219,486.563 226.005,389.730 272.219,333.563 C272.219,333.563 180.335,274.178 154.219,385.562 C154.219,385.562 -19.603,352.695 56.219,577.563 Z" class="cls-1"/>
</svg>
